<?xml version="1.0" encoding="UTF-8"?>
<svg version="1.1" xmlns="http://www.w3.org/2000/svg" width="472" height="474">
<path d="M0 0 C0.97324219 0.00515625 1.94648438 0.0103125 2.94921875 0.015625 C26.00799985 0.91610739 47.68828255 14.46886441 63.171875 30.75390625 C67.90221529 35.99290254 71.48291769 41.90855848 75 48 C75.49113281 48.7940625 75.98226562 49.588125 76.48828125 50.40625 C86.72568947 68.40887499 88.2930213 93.47415906 83.375 113.25 C82.63400265 115.51719188 81.84207332 117.76837534 81 120 C80.548062 121.28120941 80.09624321 122.56246088 79.64453125 123.84375 C75.03449576 136.46590449 68.2554446 146.31018435 59 156 C58.47148437 156.60328125 57.94296875 157.2065625 57.3984375 157.828125 C44.59504599 171.87902645 26.33078873 179.0509495 8 182 C7.01773438 182.18433594 6.03546875 182.36867188 5.0234375 182.55859375 C-17.66864162 185.87152003 -41.73144469 179.21651563 -60.046875 165.76171875 C-62.77389903 163.58085285 -65.40234726 161.3329238 -68 159 C-69.05960938 158.06414062 -69.05960938 158.06414062 -70.140625 157.109375 C-76.11773945 151.50877169 -80.63819274 144.8840088 -85 138 C-85.64324219 136.99066406 -86.28648437 135.98132813 -86.94921875 134.94140625 C-98.44101523 115.37294586 -100.64189519 90.33524355 -95.65844727 68.35571289 C-91.88975016 54.64420164 -84.61464725 41.43926115 -75 31 C-74.19046875 30.09894531 -73.3809375 29.19789063 -72.546875 28.26953125 C-58.01882982 12.87065295 -39.77367718 4.04805647 -19 1 C-18.15824219 0.814375 -17.31648438 0.62875 -16.44921875 0.4375 C-11.04182524 -0.52841399 -5.47092944 -0.11652672 0 0 Z " fill="#040404" transform="translate(243,150)"/>
<path d="M0 0 C5.93661563 6.75545917 4.44977416 16.53807239 4 25 C2.43869405 42.76628915 -0.86669782 59.50656493 -6.21191406 76.48974609 C-6.7058977 78.06320945 -7.19327907 79.63877747 -7.67089844 81.21728516 C-16.18395657 109.20281603 -33.95918325 134.04307221 -54 155 C-54.87398438 155.92683594 -55.74796875 156.85367188 -56.6484375 157.80859375 C-92.57805145 194.94991022 -144.26369536 215.91200596 -195.44970703 217.0546875 C-211.8845348 217.31896614 -227.90633065 216.64349999 -244 213 C-244.73057617 212.83516113 -245.46115234 212.67032227 -246.21386719 212.50048828 C-279.20647243 204.856895 -311.51654489 189.2817532 -336.265625 165.85546875 C-336.96171875 165.20191406 -337.6578125 164.54835938 -338.375 163.875 C-339.25285156 163.00488281 -339.25285156 163.00488281 -340.1484375 162.1171875 C-341.97986409 160.7572169 -341.97986409 160.7572169 -344.35620117 161.25463867 C-347.17933986 162.05056096 -348.82825382 163.04125113 -351.15234375 164.80859375 C-351.92263916 165.38657715 -352.69293457 165.96456055 -353.48657227 166.56005859 C-354.29537842 167.17961426 -355.10418457 167.79916992 -355.9375 168.4375 C-357.63228113 169.71034324 -359.32759857 170.98247269 -361.0234375 172.25390625 C-362.27979004 173.20160889 -362.27979004 173.20160889 -363.56152344 174.16845703 C-367.03392472 176.77658223 -370.53832813 179.3374268 -374.0625 181.875 C-374.92766235 182.5081311 -374.92766235 182.5081311 -375.81030273 183.15405273 C-379.76733487 186 -379.76733487 186 -382 186 C-382.03058986 175.83334445 -382.05097264 165.66669333 -382.0625 155.5 C-382.06335602 154.75034218 -382.06421204 154.00068436 -382.06509399 153.22830963 C-382.089738 128.80536448 -381.85379614 104.41039485 -381 80 C-373.09819177 81.48656639 -365.64731161 84.06001087 -358.07827759 86.7076416 C-354.18076395 88.0706296 -350.27746029 89.41688026 -346.375 90.765625 C-345.58482986 91.03920837 -344.79465973 91.31279175 -343.98054504 91.59466553 C-336.44263803 94.20142838 -328.88191921 96.73644327 -321.3125 99.25 C-320.10086182 99.65275146 -318.88922363 100.05550293 -317.64086914 100.47045898 C-314.09435411 101.64830828 -310.54728851 102.8244824 -307 104 C-303.4934315 105.16217971 -299.98700716 106.3247798 -296.48120117 107.48925781 C-294.3815766 108.18664728 -292.28150311 108.88268718 -290.1809082 109.57714844 C-289.26011475 109.88297852 -288.33932129 110.18880859 -287.390625 110.50390625 C-286.58657227 110.77017822 -285.78251953 111.0364502 -284.95410156 111.31079102 C-283 112 -283 112 -281 113 C-281 113.66 -281 114.32 -281 115 C-282.84375 116.3046875 -282.84375 116.3046875 -285.5 117.875 C-292.03911379 121.90688882 -298.09393566 126.48365214 -304.203125 131.1328125 C-307.75056494 133.83083969 -311.36132118 136.42653026 -315 139 C-313.64381115 142.14064786 -312.25355621 143.88287546 -309.54296875 145.953125 C-308.84993652 146.48574951 -308.1569043 147.01837402 -307.44287109 147.56713867 C-306.69859863 148.12248291 -305.95432617 148.67782715 -305.1875 149.25 C-304.41486816 149.82919189 -303.64223633 150.40838379 -302.84619141 151.00512695 C-267.36091714 177.3233108 -222.4913277 188.7343486 -178.625 183.1875 C-176.41151821 182.82155123 -174.20249026 182.42714963 -172 182 C-170.86433594 181.79375 -169.72867188 181.5875 -168.55859375 181.375 C-126.28562115 173.0621026 -84.50607169 147.85601158 -60.18481445 111.82958984 C-59.11760302 110.22343782 -58.05866974 108.61179495 -57 107 C-56.39414062 106.10667969 -55.78828125 105.21335937 -55.1640625 104.29296875 C-37.7596773 78.0288852 -28.46207857 46.42458548 -28.64160156 14.96582031 C-28.54771718 8.4328414 -27.26286104 4.04346287 -23 -1 C-15.50443844 -6.80906021 -7.23952814 -5.75871556 0 0 Z " fill="#020202" transform="translate(438,230)"/>
<path d="M0 0 C2.31214433 0.62631449 4.62464656 1.25130919 6.9375 1.875 C35.7325266 10.19356324 63.80181126 26.65237377 85.1328125 47.734375 C86.88511353 49.22452423 86.88511353 49.22452423 88.85180664 48.75244141 C91.31717347 47.88890457 93.10676137 46.7370734 95.23828125 45.2265625 C96.05192139 44.65373535 96.86556152 44.0809082 97.70385742 43.49072266 C98.56470947 42.87503418 99.42556152 42.2593457 100.3125 41.625 C101.19591064 41.00028809 102.07932129 40.37557617 102.98950195 39.73193359 C109.2440672 35.29510313 115.44924805 30.79079229 121.59301758 26.20166016 C125.89771461 23 125.89771461 23 127 23 C127.07895384 45.99257222 126.86947976 68.97445883 126.53643799 91.9644165 C126.47446283 96.27703593 126.41509843 100.58969137 126.35546875 104.90234375 C126.23943378 113.268265 126.12067071 121.63414433 126 130 C124.38808182 129.68560626 122.77658985 129.36902671 121.1652832 129.05151367 C120.2678389 128.8754509 119.37039459 128.69938812 118.445755 128.51799011 C115.91474266 127.98194322 113.59045888 127.2693539 111.1875 126.3125 C105.67501525 124.21288027 100.10061281 122.34762485 94.5 120.5 C88.99021034 118.67972448 83.49500442 116.8547342 78.0625 114.8125 C74.07049446 113.32341857 70.04329048 112.13854361 65.9375 111 C60.97775611 109.61989735 56.29872148 107.99256601 51.55859375 106 C48.57876498 104.83536463 45.56527071 103.91564679 42.5 103 C36.85306842 101.31194928 31.42343396 99.30159274 26 97 C29.50918024 93.30818585 33.18061519 90.27339382 37.375 87.375 C38.60756069 86.51154307 39.83930123 85.64691448 41.0703125 84.78125 C41.7087207 84.33265625 42.34712891 83.8840625 43.00488281 83.421875 C45.08235303 81.94130886 47.13349032 80.42970997 49.1796875 78.90625 C49.8598291 78.4004541 50.5399707 77.8946582 51.24072266 77.37353516 C52.56332708 76.38712617 53.88339148 75.39730074 55.20068359 74.40380859 C59.77974857 71 59.77974857 71 62 71 C62 70.34 62 69.68 62 69 C61.1186438 68.58814453 61.1186438 68.58814453 60.21948242 68.16796875 C58.08084865 67.04254537 56.36490068 65.82686472 54.48828125 64.3125 C42.10955804 54.48968328 29.44253833 45.73695586 14.6171875 40.01171875 C12.22240246 39.08597349 9.9400004 38.04412107 7.625 36.9375 C1.63642981 34.26518105 -4.66672975 32.64028266 -11 31 C-11.69254883 30.81904785 -12.38509766 30.6380957 -13.09863281 30.45166016 C-15.27081086 29.89117731 -17.44671519 29.3487234 -19.625 28.8125 C-20.28048828 28.64556641 -20.93597656 28.47863281 -21.61132812 28.30664062 C-58.13537037 19.5967856 -100.33785273 27.74234063 -133 45 C-133.94617188 45.48339844 -134.89234375 45.96679688 -135.8671875 46.46484375 C-176.5013227 67.72415216 -206.0314894 105.38919478 -219.71875 148.77734375 C-224.32496515 163.7977561 -226.24612182 178.33508618 -226.48291016 194.00512695 C-226.66801611 201.0242252 -227.71434682 205.42864017 -232.5 210.8125 C-236.88173226 214.64651573 -241.37336243 214.45476371 -246.9765625 214.4140625 C-250.93230649 213.87231978 -252.87065671 212.52003943 -255.6953125 209.80078125 C-259.35978904 204.7429259 -259.31817211 199.89090022 -259.25 193.875 C-259.24178223 192.98901123 -259.23356445 192.10302246 -259.22509766 191.19018555 C-258.72838221 161.12287785 -251.09684043 131.55831653 -237 105 C-235.99741661 102.91790867 -234.99733309 100.83461135 -234 98.75 C-231.16540705 93.08831302 -227.75892209 88.08091588 -224 83 C-223.05640625 81.67355469 -223.05640625 81.67355469 -222.09375 80.3203125 C-209.18294737 62.23494215 -194.13944496 45.94444569 -176 33 C-175.34515625 32.52788086 -174.6903125 32.05576172 -174.015625 31.56933594 C-156.50536152 19.07023339 -137.76585806 9.16201384 -117.22509766 2.7043457 C-114.90057024 1.96852591 -112.59114451 1.19451013 -110.28125 0.4140625 C-76.50602441 -10.865118 -33.83362842 -10.38684755 0 0 Z " fill="#020202" transform="translate(291,43)"/>
<path d="M0 0 C10.23 0 20.46 0 31 0 C31 5.79219934 30.78249891 10.30000183 29.375 15.75 C29.1996875 16.43884277 29.024375 17.12768555 28.84375 17.83740234 C26.46131144 26.64304212 22.33187392 34.61740534 17 42 C12.02405269 41.02432406 7.6367339 38.54229507 3.09375 36.375 C0.67842737 35.30152327 -1.42440069 34.50501947 -4 34 C-3.44812517 22.50577942 -1.79001265 11.36268897 0 0 Z " fill="#F6F6F6" transform="translate(285,246)"/>
<path d="M0 0 C3.75828654 0.74430614 6.98522497 2.30515262 10.4375 3.9375 C14.27005606 5.74497429 18.06084609 7.42433844 22 9 C20.35 19.89 18.7 30.78 17 42 C6.77 42 -3.46 42 -14 42 C-14 36.20780066 -13.78249891 31.69999817 -12.375 26.25 C-12.1996875 25.56115723 -12.024375 24.87231445 -11.84375 24.16259766 C-9.46131144 15.35695788 -5.33187392 7.38259466 0 0 Z " fill="#F6F6F6" transform="translate(172,195)"/>
<path d="M0 0 C10.23 0 20.46 0 31 0 C31.66 4.516875 32.32 9.03375 33 13.6875 C33.20882812 15.10377686 33.41765625 16.52005371 33.6328125 17.97924805 C33.79523438 19.10371338 33.95765625 20.22817871 34.125 21.38671875 C34.37636719 23.10701294 34.37636719 23.10701294 34.6328125 24.86206055 C34.9550671 27.61600897 35.07254211 30.23206495 35 33 C32.25206182 34.31697037 29.50182815 35.62870369 26.75 36.9375 C25.97269531 37.31068359 25.19539063 37.68386719 24.39453125 38.06835938 C23.64042969 38.42607422 22.88632813 38.78378906 22.109375 39.15234375 C21.41811523 39.48226318 20.72685547 39.81218262 20.01464844 40.15209961 C18.02572001 40.98917528 16.10419318 41.53583974 14 42 C5.34348383 28.67756022 0 15.97728423 0 0 Z " fill="#F6F6F6" transform="translate(158,246)"/>
<path d="M0 0 C9.59667693 11.66654842 14 27.2269966 14 42 C3.77 42 -6.46 42 -17 42 C-18.375 30 -18.375 30 -18.79443359 26.265625 C-19.48773389 20.35966278 -20.38619465 14.72550073 -22 9 C-21.13117188 8.60167969 -20.26234375 8.20335937 -19.3671875 7.79296875 C-18.21476562 7.26316406 -17.06234375 6.73335937 -15.875 6.1875 C-14.73804688 5.66542969 -13.60109375 5.14335937 -12.4296875 4.60546875 C-10.18194828 3.55328103 -7.95602769 2.45285789 -5.7578125 1.30078125 C-3 0 -3 0 0 0 Z " fill="#F7F7F7" transform="translate(302,195)"/>
<path d="M0 0 C10.89 0 21.78 0 33 0 C33 8.58 33 17.16 33 26 C26.68875 26.99 26.68875 26.99 20.25 28 C18.9290332 28.20882813 17.60806641 28.41765625 16.24707031 28.6328125 C14.67844238 28.87644531 14.67844238 28.87644531 13.078125 29.125 C12.00981445 29.29257812 10.94150391 29.46015625 9.84082031 29.6328125 C7 30 7 30 3 30 C2.48241587 27.62773939 1.98625939 25.25372839 1.5 22.875 C1.35691406 22.22917969 1.21382812 21.58335937 1.06640625 20.91796875 C-0.38312469 13.67031405 0 7.81756421 0 0 Z " fill="#F7F7F7" transform="translate(199,246)"/>
<path d="M0 0 C4.88770529 0.38775115 9.66552087 0.84158478 14.4375 2 C20.02293778 3.32364868 20.02293778 3.32364868 30 4 C30 12.58 30 21.16 30 30 C19.11 30 8.22 30 -3 30 C-3 13.89527027 -3 13.89527027 -1.5 7.125 C-1.35691406 6.42503906 -1.21382812 5.72507813 -1.06640625 5.00390625 C-0.72314783 3.33338195 -0.36354067 1.66622807 0 0 Z " fill="#F7F7F7" transform="translate(202,207)"/>
<path d="M0 0 C10.89 0 21.78 0 33 0 C33 21.28150134 33 21.28150134 29 30 C28.40574219 29.91435791 27.81148438 29.82871582 27.19921875 29.74047852 C24.4662549 29.34705711 21.73312912 28.95477154 19 28.5625 C18.06542969 28.42779297 17.13085938 28.29308594 16.16796875 28.15429688 C15.24628906 28.02216797 14.32460938 27.89003906 13.375 27.75390625 C12.53710938 27.63345947 11.69921875 27.5130127 10.8359375 27.38891602 C7.22817554 26.89415321 3.61340909 26.45167614 0 26 C0 17.42 0 8.84 0 0 Z " fill="#F7F7F7" transform="translate(242,246)"/>
<path d="M0 0 C3.28905583 9.8671675 3 19.59099986 3 30 C-7.89 30 -18.78 30 -30 30 C-30 21.42 -30 12.84 -30 4 C-27.751875 3.71125 -25.50375 3.4225 -23.1875 3.125 C-17.50821856 2.38427801 -11.88823757 1.48920259 -6.26953125 0.3671875 C-4 0 -4 0 0 0 Z " fill="#F8F8F8" transform="translate(272,207)"/>
<path d="M0 0 C7.8818366 0 7.8818366 0 11.33203125 0.62109375 C12.43514648 0.81735352 12.43514648 0.81735352 13.56054688 1.01757812 C14.30369141 1.15615234 15.04683594 1.29472656 15.8125 1.4375 C16.9562207 1.63956055 16.9562207 1.63956055 18.12304688 1.84570312 C23.72057039 2.86028519 23.72057039 2.86028519 26 4 C24.60001312 17.2998754 16.90365342 27.80845533 7.2109375 36.50390625 C5 38 5 38 0 39 C0 26.13 0 13.26 0 0 Z " fill="#F8F8F8" transform="translate(242,281)"/>
<path d="M0 0 C0 12.87 0 25.74 0 39 C-8.09571073 36.97607232 -13.12544474 31.56414215 -18 25 C-20.24623423 21.10124985 -22.19347542 17.1193363 -24 13 C-24.38414062 12.13890625 -24.76828125 11.2778125 -25.1640625 10.390625 C-26 8 -26 8 -26 4 C-21.67516165 2.43092755 -17.5547126 1.5042695 -13 0.875 C-11.824375 0.70742188 -10.64875 0.53984375 -9.4375 0.3671875 C-6 0 -6 0 0 0 Z " fill="#F7F7F7" transform="translate(232,281)"/>
<path d="M0 0 C0 12.87 0 25.74 0 39 C-13.60201511 37.86649874 -13.60201511 37.86649874 -18.625 37 C-19.60726562 36.835 -20.58953125 36.67 -21.6015625 36.5 C-24 36 -24 36 -26 35 C-24.67764094 22.13556868 -17.39526419 11.53428339 -8 3 C-3.63991323 0 -3.63991323 0 0 0 Z " fill="#F7F7F7" transform="translate(232,163)"/>
<path d="M0 0 C8.47155013 2.11788753 14.52018403 8.32205601 19.0234375 15.66992188 C22.56715551 21.94010509 25.27020653 27.73901689 26 35 C22.60563644 35.67429967 19.20929807 36.3380828 15.8125 37 C14.85279297 37.19078125 13.89308594 37.3815625 12.90429688 37.578125 C11.97294922 37.75859375 11.04160156 37.9390625 10.08203125 38.125 C8.80162964 38.37636719 8.80162964 38.37636719 7.49536133 38.6328125 C5 39 5 39 0 39 C0 26.13 0 13.26 0 0 Z " fill="#F8F8F8" transform="translate(242,163)"/>
<path d="M0 0 C-1.42415737 2.96980684 -3.05444991 5.71680724 -4.8125 8.5 C-7.7810636 13.33472373 -9.76862339 18.27974125 -11.62890625 23.62890625 C-13 26 -13 26 -15.2578125 27.0234375 C-18.91064947 26.99221667 -21.10989721 25.78697842 -24.3125 24.0625 C-25.38113281 23.49660156 -26.44976562 22.93070313 -27.55078125 22.34765625 C-28.35902344 21.90292969 -29.16726562 21.45820313 -30 21 C-25.71924059 11.14779996 -13.26227152 4.74871039 -3.84765625 0.6640625 C-2 0 -2 0 0 0 Z " fill="#EFEFEF" transform="translate(210,167)"/>
<path d="M0 0 C0.35191406 0.94359375 0.70382813 1.8871875 1.06640625 2.859375 C4.3424742 11.44473882 8.09089843 19.20062857 13 27 C0.86754824 23.61882492 -7.99619638 16.61318307 -17 8 C-16 5 -16 5 -13.671875 3.61328125 C-12.22554687 2.96939453 -12.22554687 2.96939453 -10.75 2.3125 C-9.31914062 1.65701172 -9.31914062 1.65701172 -7.859375 0.98828125 C-5.02126367 0.00734933 -2.9733844 -0.20075771 0 0 Z " fill="#EDEDED" transform="translate(197,289)"/>
<path d="M0 0 C6.18053762 0.32529145 11.52318503 3.35904474 17 6 C17 6.66 17 7.32 17 8 C8.39055849 16.31613388 -2.32090893 24.08022723 -14 27 C-13.48050781 26.12859375 -12.96101563 25.2571875 -12.42578125 24.359375 C-8.38053301 17.48138512 -4.81628483 10.68789024 -1.91015625 3.23046875 C-1 1 -1 1 0 0 Z " fill="#EFEFEF" transform="translate(278,289)"/>
<path d="M0 0 C5.66343037 1.34036974 10.04405967 3.50619419 14.9375 6.625 C15.63681641 7.06505371 16.33613281 7.50510742 17.05664062 7.95849609 C22.35602125 11.38235035 26.90108586 15.17298927 31 20 C28.70946559 22.29053441 26.61320096 23.30580902 23.6875 24.6875 C22.74261719 25.14511719 21.79773438 25.60273438 20.82421875 26.07421875 C17.53651918 27.1519294 16.14987582 27.48106744 13 26 C11.59614218 23.48033293 10.56553659 21.23565729 9.5625 18.5625 C8.97420609 17.10325725 8.38043123 15.64621242 7.78125 14.19140625 C7.48734375 13.47742676 7.1934375 12.76344727 6.890625 12.02783203 C5.02248962 7.77434176 2.54354889 3.87588402 0 0 Z " fill="#F0F0F0" transform="translate(264,167)"/>
<path d="M0 0 C0.66 0.99 1.32 1.98 2 3 C-0.64 5.31 -3.28 7.62 -6 10 C-6.66 9.67 -7.32 9.34 -8 9 C-5.36 6.03 -2.72 3.06 0 0 Z " fill="#D6D6D6" transform="translate(110,123)"/>
</svg>
