<?xml version="1.0" encoding="UTF-8"?>
<svg width="24" height="24" viewBox="0 0 24 24" fill="none" xmlns="http://www.w3.org/2000/svg">
  <!-- Database cylinder -->
  <ellipse cx="8" cy="6" rx="6" ry="2" fill="#4CAF50" stroke="#2E7D32" stroke-width="1"/>
  <path d="M2 6v10c0 1.1 2.7 2 6 2s6-.9 6-2V6" stroke="#2E7D32" stroke-width="1" fill="none"/>
  <ellipse cx="8" cy="16" rx="6" ry="2" fill="none" stroke="#2E7D32" stroke-width="1"/>
  <path d="M2 10c0 1.1 2.7 2 6 2s6-.9 6-2" stroke="#2E7D32" stroke-width="1" fill="none"/>

  <!-- Sync arrows -->
  <path d="M16 8h4v4" stroke="#1976D2" stroke-width="2" fill="none" stroke-linecap="round" stroke-linejoin="round"/>
  <path d="M20 8l-4 4" stroke="#1976D2" stroke-width="2" fill="none" stroke-linecap="round"/>

  <path d="M20 16h-4v-4" stroke="#1976D2" stroke-width="2" fill="none" stroke-linecap="round" stroke-linejoin="round"/>
  <path d="M16 16l4-4" stroke="#1976D2" stroke-width="2" fill="none" stroke-linecap="round"/>

  <!-- Excel sheet indicator -->
  <rect x="16" y="2" width="6" height="4" rx="0.5" fill="#217346" stroke="#1B5E20" stroke-width="0.5"/>
  <line x1="17" y1="3.5" x2="21" y2="3.5" stroke="white" stroke-width="0.5"/>
  <line x1="19" y1="2.5" x2="19" y2="5.5" stroke="white" stroke-width="0.5"/>
</svg>
